<?xml version="1.0" encoding="UTF-8"?>
<svg xmlns="http://www.w3.org/2000/svg" width="99" height="28" viewBox="0 0 99 28">
  <title>
    Wiki Loves Monuments logo (compact dark)
  </title>
  <path fill="#222" fill-rule="nonzero" d="M21.8301696 10.696018l2.9127176-5.80984975c.4873553-1.06292111.3875739-1.32901446.1865587-1.57485157-.1156903-.13738934-.5032641-.36013206-1.3463661-.39335457l-.331162-.03616508c-.0838821 0-.162012-.02895105-.2386136-.0853344-.0752158-.05350723-.1128047-.12295178-.1128047-.21113382v-.71728357l.1026766-.07375398c2.0622068-.01442806 6.6942131 0 6.6942131 0h-.0000285l.0823919.0751778v.71728357c0 .19812958-.1113524.29646822-.3311715.29646822-1.0788205.05061213-1.3000824.15762659-1.6948798.72595939-.2154717.30947247-.640644.9761534-1.0817156 1.72525464l-3.7860092 7.08032522s-.0373972.0781359-.1068112.2228796l4.6275221 9.4677955.2805594.0766965 7.2885734-17.2973588c.2530796-.69703681.2140289-1.19161563-.1113524-1.48229365-.3268336-.28200219-.5567713-.4511997-1.4013161-.48590299l-.6840231-.03322252c-.0839106 0-.1634168-.03037487-.2400659-.08818204-.0751778-.05353571-.1142475-.12436611-.1142475-.20969102v-.72017867l.1041289-.07375398h8.2343519l.0839106.07375398v.72017867c0 .19523448-.1113524.29356363-.331162.29356363-1.07883.0477455-1.8785433.28200219-2.396264.69994141-.5191635.42082484-.924089.99928576-1.214767 1.75417722 0 0-6.7028795 15.34071416-8.9964669 20.44127176-.8778148 1.6717474-1.7411635 1.5184492-2.5003929-.0477455-.9506916-1.9579606-2.9248295-6.2763516-4.3749824-9.4687091-1.5507739 3.199245-3.6741186 7.5350195-4.7271606 9.4873612-1.0238704 1.7802521-1.8669724 1.5474192-2.5379912.0463216-2.329743-5.4967978-7.1135857-15.1483842-9.36523683-20.556962-.41649642-.99640015-.7303068-1.63559182-1.02676553-1.88867144-.29791103-.25018452-.91685595-.40060657-1.85829657-.45119971C1.17209262 2.85723136 1 2.77335875 1 2.63742171v-.75344865l.08391058-.07375398c1.53291527-.00854293 8.95164502 0 8.95164502 0l.0839106.07375398v.71729306c0 .19812009-.12581844.29356363-.37310785.29356363l-.9342076.03901272c-.80116567.03326048-1.20175325.27331688-1.20175325.71728357 0 .2068054.0838821.54375763.27043126.99494785C9.67404718 9.01633423 15.8678913 22.0764746 15.8678913 22.0764746l.2270427.059326 3.9924691-7.9635751c-.4880925-1.0783118-.7993394-1.768875-.7993394-1.768875l-2.7447872-5.39413072-.0000379-.00013289s-.5307344-1.07882046-.7115029-1.43746224c-1.2060817-2.38904047-1.1800542-2.51630168-2.3991496-2.67826618-.3412901-.04480294-.5177207-.08818205-.5177207-.25741753v-.75633426l.1026766-.07375398c2.2024818-.00284765 7.1034671-.00284765 7.1034671-.00284765l.1880014.06217356v.75343916c0 .17209262-.1229233.26030314-.3731078.26030314l-.5148256.07375398c-1.3015347.10123375-1.0889485.63342045-.224157 2.35577999l2.6332495 5.38756312zm27.4930627 1.0716588s1.0505051-2.10101013 3.1515152-2.10101013c2.6262626 0 4.2020202 2.10101013 4.2020202 4.20202023 0 4.2020202-5.2525253 5.2525252-7.3535354 8.4040404-2.1010101-3.1515152-7.3535353-4.2020202-7.3535353-8.4040404 0-2.1010101 1.5757575-4.20202023 4.2020202-4.20202023 2.1010101 0 3.1515151 2.10101013 3.1515151 2.10101013zm13.1313132 15.1369899v-1.891697l2.4707878-.2702424.5404849-.6949091V3.58660606l-.4632727-.50187879-2.548-.23163636V1h10.1147878v1.0809697l6.0225455 17.7201818 5.9839394-17.68157574V1h13.3821212v1.85309091l-2.6252121.23163636-.4246667.54048485V24.2022424l.4246667.617697 2.6252121.1930303v1.891697H84.1125455v-1.891697l2.3935757-.1930303.3860606-.617697V3.47078788L78.8621212 26.9046667h-2.7796364L68.2454545 3.66381818V24.0478182l.579091.6949091 2.3935757.2702424v1.891697h-8.7635757zM92.3939394 3.36363636V24.6968803h.7878788V3.36363636h-.7878788zm-3.1515152 0V24.6968803h.7878788V3.36363636h-.7878788z"/>
</svg>
