<?xml version="1.0" encoding="UTF-8"?>
<svg xmlns="http://www.w3.org/2000/svg" width="48" height="48" viewBox="0 0 48 48">
  <title>
    Wiki loves Monuments
  </title>
  <path fill="#222" fill-rule="evenodd" d="M32.7,8h6.5v12c0.9-0.7,2-1.1,3.3-1.1c3,0,5.5,2.4,5.5,5.5c0,3-2.4,5.5-5.5,5.5c-1.2,0-2.4-0.4-3.3-1.1v9.8h-9.6
		c0.6-1,0.9-2.1,0.9-3.3c0-3.6-2.9-6.5-6.5-6.5s-6.5,2.9-6.5,6.5c0,1.2,0.3,2.3,0.9,3.3H8.7v-9.8c-0.9,0.7-2,1.1-3.3,1.1
		c-3,0-5.5-2.4-5.5-5.5c0-3,2.4-5.5,5.5-5.5c1.2,0,2.4,0.4,3.3,1.1V8h6.5v4.4h4.4V8h8.7v4.4h4.4V8z"/>
</svg>
