<?xml version="1.0" encoding="UTF-8"?>
<svg xmlns="http://www.w3.org/2000/svg" xmlns:xlink="http://www.w3.org/1999/xlink"
	 viewBox="0 0 200 65" width="200" height="65">
	<title>
		Wiki loves Monuments
	</title>
	<circle fill="#fff" cx="31.1" cy="31.1" r="31"/>
	<g>
		<path fill="#b32424" d="M62.3,29.8c-1.1-0.8-2.4-1.3-3.9-1.3c-1.5,0-2.8,0.5-3.9,1.3V15.6h-7.8v5.2h-5.2v-5.2H31.2v5.2H26v-5.2h-7.8
			v14.3c-1.1-0.8-2.4-1.3-3.9-1.3c-3.6,0-6.5,2.9-6.5,6.5c0,3.6,2.9,6.5,6.5,6.5c1.5,0,2.8-0.5,3.9-1.3v11.7h11.5
			c-0.7-1.2-1.1-2.5-1.1-3.9c0-4.3,3.5-7.8,7.8-7.8s7.8,3.5,7.8,7.8c0,1.4-0.4,2.7-1.1,3.9h11.3c-5.7,6.4-14,10.4-23.2,10.4
			C14,62.3,0,48.4,0,31.2S14,0,31.2,0C48,0,61.6,13.2,62.3,29.8z M60.7,41.2c-1.3,4-3.5,7.6-6.2,10.6V40.3c1.1,0.8,2.4,1.3,3.9,1.3
			C59.3,41.6,60,41.4,60.7,41.2z"/>
		<path fill="#fff" d="M76.9,31.3l-3-11l-1.1-0.2v-0.7h4.1v0.7l-1.1,0.1l-0.2,0.3l2.3,8.2l2.9-9.3H82l3,9.5l2.2-8.4L87,20.3
			l-1.2-0.2v-0.7h3.7v0.7l-1.2,0.2l-2.9,11h-1.2l-3.1-9.8l-3,9.8C78.1,31.3,76.9,31.3,76.9,31.3z M92,22.6h0.7v7.6l0.3,0.3l1,0.1
			v0.6h-4.1v-0.6l1-0.1l0.3-0.3v-6.5h-1.3v-0.6C89.9,23.3,92,22.6,92,22.6z M92,18.7c0.3,0,0.5,0.1,0.7,0.3c0.2,0.2,0.3,0.4,0.3,0.7
			s-0.1,0.5-0.3,0.7c-0.2,0.2-0.5,0.3-0.7,0.3c-0.3,0-0.5-0.1-0.7-0.3C91.1,20.2,91,20,91,19.7c0-0.3,0.1-0.5,0.3-0.7
			C91.5,18.8,91.8,18.7,92,18.7z M94.8,31.3v-0.6l1-0.1l0.3-0.3V19.4h-1.4v-0.6l2.2-0.6h0.7v8.6h0.3l2.8-3l-0.1-0.3l-0.8-0.1v-0.7
			h3.4v0.7l-1.2,0.1l-2.5,2.6l3.2,4.4l1.2,0.1v0.7h-2.8v-0.6l-2.5-3.5h-1v3l0.3,0.3l0.9,0.1v0.6C98.8,31.3,94.8,31.3,94.8,31.3z
			 M106.4,22.6h0.7v7.6l0.3,0.3l1,0.1v0.6h-4.1v-0.6l1-0.1l0.3-0.3v-6.5h-1.3v-0.6C104.4,23.3,106.4,22.6,106.4,22.6z M106.5,18.7
			c0.3,0,0.5,0.1,0.7,0.3s0.3,0.4,0.3,0.7s-0.1,0.5-0.3,0.7c-0.2,0.2-0.5,0.3-0.7,0.3c-0.3,0-0.5-0.1-0.7-0.3
			c-0.2-0.2-0.3-0.4-0.3-0.7c0-0.3,0.1-0.5,0.3-0.7C106,18.8,106.2,18.7,106.5,18.7z M73.3,51.7v-1.1l1.5-0.2l0.3-0.4V37.8l-0.3-0.3
			l-1.5-0.1v-1.1h6.1v0.6l3.6,10.5L86.7,37v-0.7h6.2v1.1l-1.6,0.1L91,37.9v12.2l0.3,0.4l1.6,0.1v1.1h-6.5v-1.1l1.4-0.1l0.2-0.4V37.8
			l-4.9,13.9h-1.7l-4.7-13.8V50l0.4,0.4l1.4,0.2v1.1C78.6,51.7,73.3,51.7,73.3,51.7z M100.2,40.3c3.6,0,5.9,2.3,5.9,5.9
			c0,3.4-2.4,5.7-6,5.7c-3.5,0-5.9-2.3-5.9-5.8C94.2,42.6,96.6,40.3,100.2,40.3z M100.1,41.5c-1.7,0-2.7,1.6-2.7,4.6
			c0,3,1.1,4.6,2.7,4.6c1.7,0,2.8-1.6,2.8-4.6C102.9,43.1,101.8,41.5,100.1,41.5z M107.5,51.7v-1l1.2-0.1l0.3-0.3v-7.9h-1.6v-0.9
			l3.4-1.1h1.1v1.4c1.7-0.9,3-1.4,4-1.4c2.1,0,3.2,1.3,3.2,3.8v6.1l0.3,0.3l1.2,0.1v1h-5.7v-1l1-0.1l0.3-0.3v-5.5
			c0-1.7-0.6-2.5-2.1-2.5c-0.6,0-1.3,0.1-2.2,0.4v7.6l0.3,0.3l1,0.1v1C113.3,51.7,107.5,51.7,107.5,51.7z M124.7,40.3h1.1v7.1
			c0,1.8,0.6,2.6,2.2,2.6c0.6,0,1.2-0.1,2-0.4v-7.3h-1.5v-0.9l3.3-1.1h1.1v10l0.3,0.3l1.2,0.1v1h-4.4v-1.3c-1.5,0.9-2.7,1.5-3.9,1.5
			c-2.2,0-3.2-1.3-3.2-3.9v-5.7h-1.5v-0.9C121.5,41.4,124.7,40.3,124.7,40.3z M146.6,41.8c1.9-1.1,3.3-1.6,4.1-1.6
			c2.2,0,3.2,1.3,3.2,3.8v6.1l0.3,0.3l1.2,0.1v1h-5.7v-1l1-0.1l0.3-0.3v-5.5c0-1.7-0.6-2.5-2.1-2.5c-0.6,0-1.2,0.2-2,0.4v7.5
			l0.3,0.3l1.1,0.1v1h-5.5v-1l1-0.1l0.3-0.4v-5.6c0-1.6-0.6-2.4-2.1-2.4c-0.6,0-1.2,0.1-2,0.4v7.6l0.3,0.3l1,0.1v1h-5.7v-1l1.2-0.1
			l0.3-0.3v-7.9h-1.5v-0.9l3.3-1.1h1.1v1.4c1.6-0.9,2.8-1.4,3.8-1.4C145,40.2,146,40.8,146.6,41.8z M167.2,48.9v1.7
			c-1.6,0.9-3.2,1.4-4.8,1.4c-3.5,0-5.8-2.3-5.8-5.8c0-3.5,2.4-5.9,5.8-5.9c3.1,0,4.9,1.9,4.9,5.2v0.4h-7.6v0.1
			c0,2.6,1.4,4.2,3.8,4.2C164.6,50.1,165.8,49.7,167.2,48.9z M164.2,44.6v-0.3c0-1.9-0.7-2.9-2-2.9c-1.4,0-2.4,1.1-2.4,3.1H164.2z
			 M168.7,51.7v-1l1.2-0.1l0.3-0.3v-7.9h-1.6v-0.9l3.4-1.1h1.1v1.4c1.7-0.9,3-1.4,4-1.4c2.1,0,3.2,1.3,3.2,3.8v6.1l0.3,0.3l1.2,0.1
			v1h-5.7v-1l1-0.1l0.3-0.3v-5.5c0-1.7-0.6-2.5-2.1-2.5c-0.6,0-1.3,0.1-2.2,0.4v7.6l0.3,0.3l1,0.1v1H168.7z M184,42.2h-1.5v-0.9
			l1.7-1l1.2-2.4h1.5v2.8h3.5v1.4h-3.5v5.7c0,1.6,0.4,2.2,1.9,2.2c0.6,0,1.1,0,1.5-0.2v1.1c-1.4,0.5-2.6,0.7-3.6,0.7
			c-0.8,0-1.4-0.1-1.9-0.5c-0.8-0.5-0.8-1.3-0.8-2.4C184,48.9,184,42.2,184,42.2z M199.6,40.8v3.1h-1.4l-0.2-1.7l-0.3-0.3
			c-0.5-0.2-1-0.4-1.5-0.4c-1.1,0-1.8,0.5-1.8,1.4c0,1,0.8,1.4,2.2,2c2.1,1,3.4,1.6,3.4,3.3c0,2.3-1.8,3.8-4.8,3.8
			c-1.1,0-2.4-0.2-3.9-0.6V48h1.4l0.3,2l0.2,0.3c0.6,0.3,1.3,0.5,2,0.5c1.3,0,2-0.6,2-1.7c0-1.2-1.3-1.5-3.1-2.4
			c-1.7-0.8-2.6-1.7-2.6-3c0-2,1.7-3.4,4.6-3.4C197.3,40.2,198.5,40.4,199.6,40.8z"/>
		<path fill="#b32424" d="M114.3,31v-0.6l1.1-0.1l0.3-0.3V19.3h-1.4v-0.5l2.2-0.6h0.7V30l0.3,0.3l1,0.1V31C118.6,31,114.3,31,114.3,31z
			 M123.8,23.2c-0.8,0-1.4,0.3-1.8,1c-0.5,0.7-0.7,1.5-0.7,2.6c0,1.1,0.2,2,0.7,2.6c0.5,0.7,1.1,1,1.8,1c0.8,0,1.4-0.3,1.8-1
			c0.5-0.7,0.7-1.5,0.7-2.6c0-1.1-0.2-2-0.7-2.6C125.2,23.5,124.6,23.2,123.8,23.2z M123.8,22.4c1.2,0,2.3,0.4,3.1,1.2
			c0.8,0.8,1.2,1.9,1.2,3.1s-0.4,2.3-1.2,3.1c-0.8,0.8-1.8,1.2-3,1.2s-2.2-0.4-3-1.2c-0.8-0.8-1.2-1.9-1.2-3.1
			c0-1.3,0.4-2.3,1.2-3.1C121.6,22.9,122.6,22.4,123.8,22.4z M128.7,22.6h3.9v0.6l-1,0.1l-0.2,0.3l2.1,5.7l2.3-5.7l-0.2-0.3l-1-0.1
			v-0.6h3.2v0.6l-1.1,0.1l-3.2,7.6h-1l-2.9-7.6l-1.1-0.1C128.7,23.3,128.7,22.6,128.7,22.6z M144.3,25.7v-0.3c0-0.7-0.2-1.2-0.5-1.6
			c-0.3-0.4-0.8-0.6-1.4-0.6c-0.6,0-1.1,0.2-1.6,0.7c-0.4,0.5-0.7,1-0.7,1.8H144.3z M145.9,29.2v1c-0.5,0.3-1.1,0.6-1.7,0.8
			c-0.6,0.2-1.2,0.3-1.8,0.3c-1.2,0-2.2-0.4-2.9-1.2s-1.1-1.8-1.1-3.1c0-1.3,0.4-2.4,1.2-3.2c0.8-0.8,1.8-1.2,3-1.2
			c1,0,1.8,0.3,2.4,0.9s0.9,1.5,0.9,2.5c0,0.1,0,0.2,0,0.3c0,0.1,0,0.1,0,0.2H140v0.2c0,1.1,0.3,2,0.8,2.6c0.6,0.6,1.3,1,2.2,1
			c0.4,0,0.9-0.1,1.3-0.2C144.9,29.8,145.4,29.5,145.9,29.2z M153,22.8v2h-0.9l-0.1-1.2c-0.2-0.1-0.5-0.2-0.7-0.3
			c-0.2-0.1-0.4-0.1-0.7-0.1c-0.5,0-0.8,0.1-1.1,0.3s-0.4,0.5-0.4,0.9c0,0.3,0.1,0.6,0.3,0.8c0.2,0.2,0.6,0.5,1.2,0.8
			c0.1,0,0.2,0.1,0.4,0.2c0.7,0.3,1.2,0.6,1.5,0.8c0.2,0.2,0.4,0.4,0.5,0.6c0.1,0.3,0.2,0.5,0.2,0.9c0,0.8-0.3,1.5-0.9,1.9
			c-0.6,0.5-1.4,0.7-2.5,0.7c-0.4,0-0.9,0-1.3-0.1c-0.4-0.1-0.8-0.2-1.1-0.3v-2.3h0.9l0.2,1.5c0.3,0.1,0.5,0.2,0.8,0.3
			c0.3,0.1,0.5,0.1,0.8,0.1c0.5,0,0.9-0.1,1.2-0.4s0.5-0.6,0.5-1c0-0.4-0.1-0.6-0.3-0.9s-0.7-0.5-1.5-0.9c-0.9-0.4-1.5-0.8-1.9-1.1
			c-0.3-0.3-0.5-0.8-0.5-1.3c0-0.8,0.3-1.4,0.8-1.8c0.6-0.4,1.4-0.6,2.4-0.6c0.4,0,0.8,0,1.1,0.1C152.3,22.6,152.7,22.7,153,22.8z"
			/>
	</g>
</svg>
