<?xml version="1.0" encoding="UTF-8"?>
<svg xmlns="http://www.w3.org/2000/svg" width="22" height="22" viewBox="0 0 22 22">
  <title>
    Wiki loves Monuments
  </title>
  <path fill="#222" fill-rule="evenodd" d="M15 4h3v5.49981811C18.4178307 9.1859729 18.9371978 9 19.5 9c1.3807083 0 2.5 1.1192883 2.5 2.5 0 1.3807083-1.1192917 2.5-2.5 2.5-.5628022 0-1.0821693-.1859735-1.5-.4998191V18h-4.42c.26963-.4543.41451-.97174.42-1.5 0-1.65685-1.343145-3-3-3-1.656854 0-3 1.34315-3 3 .005486.52826.15037 1.0457.42 1.5H4v-4.4998191C3.58216928 13.8140265 3.0628022 14 2.5 14 1.11929167 14 0 12.8807083 0 11.5 0 10.1192883 1.11929167 9 2.5 9c.5628022 0 1.08216928.1859729 1.5.49981811V4h3v2h2V4h4v2h2V4z"/>
</svg>
