<?xml version="1.0" encoding="UTF-8"?>
<svg xmlns="http://www.w3.org/2000/svg" width="241" height="65" viewBox="0 0 241 65">
	<title>
		Wiki Loves Monuments
	</title>
	<path fill="#fff" fill-rule="evenodd" d="M2 62.879v-2.401l3.136-.343.686-.882v-25.97l-.588-.637L2 32.352V30h12.838v1.372l7.644 22.491 7.595-22.442V30h16.985v2.352l-3.332.294-.539.686v26.117l.539.784 3.332.245v2.401H29.489v-2.401l3.038-.245.49-.784V33.136L22.825 62.879h-3.528L9.35 33.381v25.872l.735.882 3.038.343v2.401H2zM40 33v27.0768096h1V33h-1zm-4 0v27.0768096h1V33h-1zM7.08105469 19L3.38574219 5.421875 2 5.12109375v-.88085937h4.93066406v.88085937l-1.38574218.171875-.18261719.31152344L8.20898438 15.7666016 11.7431641 4.24023438h1.546875l3.5986328 11.76269532 2.6640625-10.31250001-.2363282-.31152344-1.4716796-.2578125v-.88085937h4.5439453v.88085937l-1.4716797.30078125L17.4257812 19H15.921875L12.2050781 6.96875 8.55273438 19H7.08105469zM25.3320312 8.31152344h.859375v9.43164066l.3759766.3544921 1.1816406.1074219V19h-4.9414062v-.7949219l1.1601562-.1074219.3759766-.3544921V9.78320312h-1.5361328v-.6875l2.524414-.78417968zm.0859376-4.88769532c.3580747 0 .6606432.12532427.9077148.37597657.2470715.25065229.3706055.55143053.3706055.90234375 0 .35091321-.123534.64811076-.3706055.89160156-.2470716.2434908-.5496401.36523438-.9077148.36523438-.3509133 0-.6499012-.12174358-.8969727-.36523438-.2470716-.2434908-.3706055-.54068835-.3706055-.89160156 0-.35807471.1235339-.6606433.3706055-.90771485.2470715-.24707154.5460594-.37060547.8969727-.37060547zM28.7373047 19v-.7949219l1.1923828-.1074219.3759766-.3544921V4.28320312h-1.6972657v-.6875l2.6855469-.78417968h.8378906V13.3925781h.4189453l3.3623047-3.7597656-.1503906-.31152344-.9990234-.0859375v-.81640625h4.1787109v.81640625l-1.4072266.171875-3.0078124 3.19042964 3.8671874 5.4570313 1.4072266.1074219V19H36.375v-.7304688l-2.9755859-4.2646484h-1.2675782v3.7382813l.3867188.3544921 1.0419922.1074219V19h-4.8232422zM42.8632812 8.31152344h.859375v9.43164066l.3759766.3544921 1.1816406.1074219V19h-4.9414062v-.7949219l1.1601562-.1074219.3759766-.3544921V9.78320312h-1.5361328v-.6875l2.524414-.78417968zm.0859376-4.88769532c.3580747 0 .6606432.12532427.9077148.37597657.2470715.25065229.3706055.55143053.3706055.90234375 0 .35091321-.123534.64811076-.3706055.89160156-.2470716.2434908-.5496401.36523438-.9077148.36523438-.3509133 0-.6499012-.12174358-.8969727-.36523438-.2470716-.2434908-.3706055-.54068835-.3706055-.89160156 0-.35807471.1235339-.6606433.3706055-.90771485.2470715-.24707154.5460594-.37060547.8969727-.37060547zM52.4453125 19v-.7949219l1.2998047-.1074219.3759766-.3544921V4.28320312h-1.6972657v-.6875l2.6855469-.78417968h.8378906V17.7431641l.397461.3544921 1.2568359.1074219V19h-5.15625zm11.515625-9.86132812c-.9166712 0-1.6525037.41357008-2.2075195 1.24072262-.5550158.8271526-.8325196 1.9317965-.8325196 3.3139649 0 1.3821683.2792941 2.4868122.8378907 3.3139648.5585965.8271526 1.2926386 1.2407227 2.2021484 1.2407227.9238327 0 1.6650363-.4117798 2.2236328-1.2353516.5585966-.8235718.8378906-1.9300061.8378906-3.3193359 0-1.3750069-.2810844-2.4778605-.8432617-3.3085938-.5621773-.8307333-1.3015904-1.24609372-2.2182617-1.24609372zm0-.9453125c1.4967523 0 2.7249301.51382949 3.6845703 1.5415039.9596402 1.02767442 1.4394531 2.34715992 1.4394531 3.95849612 0 1.6113362-.4816032 2.9308217-1.4448242 3.9584961-.9632209 1.0276744-2.1896084 1.5415039-3.6791992 1.5415039-1.4895908 0-2.7123976-.5120392-3.668457-1.5361328-.9560595-1.0240937-1.4340821-2.3453695-1.4340821-3.9638672 0-1.6184977.4744419-2.9397736 1.4233399-3.96386721.948898-1.02409366 2.1752854-1.53613281 3.6791992-1.53613281zm5.8330078.22558593h4.7695313v.81640625l-1.1601563.0859375-.2685547.35449219 2.578125 7.18652345 2.8144532-7.18652345-.1826172-.35449219-1.1816407-.0859375v-.81640625h3.8886719v.81640625l-1.2890625.171875L75.90625 19h-1.2353516l-3.5341796-9.63574219-1.3427735-.12890625v-.81640625zm18.8740235 3.86718749v-.34375c0-.8880253-.1951478-1.568357-.5854493-2.04101561-.3903014-.47265862-.9578413-.70898438-1.7026367-.70898438-.7304724 0-1.3624648.29182651-1.8959961.87548829-.5335313.5836618-.8325192 1.3230749-.8969726 2.2182617h5.0810547zm1.9658203 4.3828125v1.2138672c-.651696.4296896-1.328447.7555327-2.0302735.9775391-.7018264.2220063-1.407223.3330078-2.1162109.3330078-1.4537833 0-2.6336218-.4995067-3.5395508-1.4985352-.905929-.9990284-1.3588867-2.3006105-1.3588867-3.9047851 0-1.6471437.4744419-2.991694 1.4233398-4.03369144.948898-1.0419974 2.1681241-1.56298828 3.6577149-1.56298828 1.217454 0 2.1824508.38850522 2.8950195 1.16552734.7125687.77702208 1.0688477 1.83511698 1.0688477 3.17431638 0 .1790374-.0017904.3151037-.0053711.4082031-.0035808.0930995-.0125325.1826168-.0268555.2685547h-7.1220703v.2470703c0 1.3821684.3330045 2.4760702.9990234 3.2817383.666019.8056681 1.564773 1.2084961 2.6962891 1.2084961.5227891 0 1.0652641-.1038401 1.6274414-.3115234.5621773-.2076833 1.1726855-.5299457 1.831543-.9667969zm8.5185547-7.99218749v2.49218749h-1.084961l-.171875-1.55761718c-.2936212-.15755287-.5729153-.27571575-.8378906-.35449218-.2649753-.07877644-.5299466-.11816406-.7949219-.11816406-.5729195 0-1.0205062.13964704-1.3427734.41894531-.3222673.27929827-.4833985.66959381-.4833985 1.17089841 0 .4082052.128905.7555324.3867188 1.0419922.2578138.2864598.7519495.6051415 1.4824219.9560547.1145839.057292.2900378.1396479.5263671.2470703.8307334.3795592 1.4322899.7233058 1.8046876 1.03125.2721367.2148448.4798169.4851872.6230468.8110352.1432299.325848.2148438.6857076.2148438 1.0795898 0 1.0312552-.3634404 1.8387015-1.0903321 2.4223633-.7268916.5836618-1.7348568.8754883-3.0239257.8754883-.5299506 0-1.0366187-.0375973-1.5200196-.112793-.4834008-.0751957-.9291971-.1915682-1.3374023-.3491211v-2.8574219h1.0527344l.2685547 1.8691407c.3079442.1790373.6176742.311523.9291992.3974609.311525.0859379.6248356.1289062.9399414.1289062.62305 0 1.1225567-.1629215 1.4985351-.4887695.3759785-.325848.5639649-.7537408.5639649-1.2836914 0-.4440126-.128905-.8110337-.3867188-1.1010742-.2578138-.2900405-.873693-.6570616-1.8476562-1.1010742-1.1028701-.4941431-1.8530254-.9596333-2.2504883-1.3964844-.3974629-.4368511-.5961914-.9775358-.5961914-1.6220703 0-.9811247.3401659-1.7402317 1.0205078-2.27734376.6803419-.53711206 1.6399678-.80566406 2.8789063-.80566406.494143 0 .9542621.04117797 1.380371.12353515s.8253563.20231041 1.197754.35986328zM59.432 40.042c6.426 0 10.542 4.158 10.542 10.836 0 6.216-4.242 10.458-10.878 10.458-6.3 0-10.542-4.2-10.542-10.542 0-6.468 4.284-10.752 10.878-10.752zm-.168 2.226c-2.982 0-4.872 2.94-4.872 8.358 0 5.502 1.89 8.484 4.83 8.484 3.108 0 4.956-2.898 4.956-8.358 0-5.502-1.932-8.484-4.914-8.484zM72.536 61H82.91v-1.89l-1.848-.168-.588-.63v-13.86c1.596-.462 2.94-.714 3.99-.714 2.646 0 3.78 1.428 3.78 4.536v10.038l-.588.63-1.806.168V61h10.29v-1.89l-2.226-.168-.546-.63V47.056c0-4.662-1.848-6.972-5.712-6.972-1.848 0-4.2.924-7.182 2.562v-2.478h-2.016l-6.048 1.974v1.68h2.856v14.49l-.588.63-2.142.168V61zm30.996-20.958l-5.922 2.016v1.638h2.73v10.5c0 4.83 1.848 7.182 5.754 7.182 2.226 0 4.41-.966 7.056-2.688V61h7.938v-1.89l-2.184-.168-.588-.63v-18.27h-1.932l-5.964 2.016v1.638h2.73v13.398c-1.386.42-2.562.672-3.612.672-2.898 0-3.99-1.428-3.99-4.704v-13.02h-2.016zm39.354 2.898c-1.134-1.932-2.814-2.94-4.914-2.94-1.848 0-4.032.966-6.888 2.646v-2.478h-2.016l-5.922 1.974v1.68h2.73v14.49l-.588.63-2.142.168V61h10.29v-1.89l-1.764-.168-.588-.63v-13.86c1.344-.504 2.52-.756 3.528-.756 2.688 0 3.78 1.386 3.78 4.326v10.206l-.588.714-1.722.168V61h9.912v-1.848l-1.89-.21-.588-.63V44.536c1.386-.504 2.562-.798 3.612-.798 2.772 0 3.864 1.386 3.864 4.536v10.038l-.588.63-1.806.168V61h10.332v-1.89l-2.226-.168-.546-.63V47.056c0-4.662-1.932-6.972-5.838-6.972-1.554 0-4.074.924-7.434 2.856zm37.044 12.852V58.9c-2.814 1.638-5.754 2.478-8.694 2.478-6.258 0-10.374-4.2-10.374-10.542 0-6.426 4.326-10.836 10.374-10.836 5.502 0 8.736 3.444 8.736 9.492v.798h-13.734v.126c0 4.83 2.604 7.686 6.762 7.686 2.226 0 4.494-.756 6.93-2.31zm-5.46-7.728v-.462c0-3.486-1.344-5.292-3.654-5.292-2.52 0-4.242 2.1-4.368 5.754h8.022zM182.618 61h10.374v-1.89l-1.848-.168-.588-.63v-13.86c1.596-.462 2.94-.714 3.99-.714 2.646 0 3.78 1.428 3.78 4.536v10.038l-.588.63-1.806.168V61h10.29v-1.89l-2.226-.168-.546-.63V47.056c0-4.662-1.848-6.972-5.712-6.972-1.848 0-4.2.924-7.182 2.562v-2.478h-2.016l-6.048 1.974v1.68h2.856v14.49l-.588.63-2.142.168V61zm27.636-17.388v12.222c0 2.142.042 3.486 1.512 4.452.966.672 2.1.924 3.486.924 1.722 0 3.906-.42 6.426-1.344V57.85c-.84.21-1.722.294-2.73.294-2.772 0-3.486-1.092-3.486-4.074V43.612h6.216v-2.52h-6.216v-5.208h-2.646l-2.184 4.368-3.108 1.764v1.596h2.73zm28.098-2.562c-2.142-.714-4.242-1.05-6.342-1.05-5.166 0-8.232 2.646-8.232 6.258 0 2.52 1.596 3.99 4.704 5.544 3.276 1.638 5.544 2.058 5.544 4.326 0 1.848-1.302 3.024-3.57 3.024-1.26 0-2.436-.294-3.528-.882l-.42-.462-.462-3.612h-2.562v6.216c2.604.714 4.914 1.05 6.93 1.05 5.418 0 8.568-2.688 8.568-6.93 0-3.024-2.394-4.158-6.132-5.964-2.478-1.218-3.906-1.932-3.906-3.696 0-1.554 1.134-2.52 3.192-2.52.966 0 1.89.252 2.772.672l.504.462.42 3.15h2.52V41.05z"/>
</svg>
