<?xml version="1.0" encoding="UTF-8"?>
<svg width="241px" height="65px" viewBox="0 0 241 65" version="1.1" xmlns="http://www.w3.org/2000/svg" xmlns:xlink="http://www.w3.org/1999/xlink">
    <!-- Generator: Sketch 48.2 (47327) - http://www.bohemiancoding.com/sketch -->
    <title>wlm-full-dark</title>
    <desc>Created with Sketch.</desc>
    <defs></defs>
    <g id="Wiki-Loves-Monuments" stroke="none" stroke-width="1" fill="none" fill-rule="evenodd">
        <g id="wlm-full-dark" fill="#222222">
            <path d="M2,62.879 L2,60.478 L5.136,60.135 L5.822,59.253 L5.822,33.283 L5.234,32.646 L2,32.352 L2,30 L14.838,30 L14.838,31.372 L22.482,53.863 L30.077,31.421 L30.077,30 L47.062,30 L47.062,32.352 L43.73,32.646 L43.191,33.332 L43.191,59.449 L43.73,60.233 L47.062,60.478 L47.062,62.879 L29.489,62.879 L29.489,60.478 L32.527,60.233 L33.017,59.449 L33.017,33.136 L22.825,62.879 L19.297,62.879 L9.35,33.381 L9.35,59.253 L10.085,60.135 L13.123,60.478 L13.123,62.879 L2,62.879 Z M40,33 L40,60.0768096 L41,60.0768096 L41,33 L40,33 Z M36,33 L36,60.0768096 L37,60.0768096 L37,33 L36,33 Z" id="Combined-Shape-Copy"></path>
            <path d="M7.08105469,19 L3.38574219,5.421875 L2,5.12109375 L2,4.24023438 L6.93066406,4.24023438 L6.93066406,5.12109375 L5.54492188,5.29296875 L5.36230469,5.60449219 L8.20898438,15.7666016 L11.7431641,4.24023438 L13.2900391,4.24023438 L16.8886719,16.0029297 L19.5527344,5.69042969 L19.3164062,5.37890625 L17.8447266,5.12109375 L17.8447266,4.24023438 L22.3886719,4.24023438 L22.3886719,5.12109375 L20.9169922,5.421875 L17.4257812,19 L15.921875,19 L12.2050781,6.96875 L8.55273438,19 L7.08105469,19 Z M25.3320312,8.31152344 L26.1914062,8.31152344 L26.1914062,17.7431641 L26.5673828,18.0976562 L27.7490234,18.2050781 L27.7490234,19 L22.8076172,19 L22.8076172,18.2050781 L23.9677734,18.0976562 L24.34375,17.7431641 L24.34375,9.78320312 L22.8076172,9.78320312 L22.8076172,9.09570312 L25.3320312,8.31152344 Z M25.4179688,3.42382812 C25.7760435,3.42382812 26.078612,3.54915239 26.3256836,3.79980469 C26.5727551,4.05045698 26.6962891,4.35123522 26.6962891,4.70214844 C26.6962891,5.05306165 26.5727551,5.3502592 26.3256836,5.59375 C26.078612,5.8372408 25.7760435,5.95898438 25.4179688,5.95898438 C25.0670555,5.95898438 24.7680676,5.8372408 24.5209961,5.59375 C24.2739245,5.3502592 24.1503906,5.05306165 24.1503906,4.70214844 C24.1503906,4.34407373 24.2739245,4.04150514 24.5209961,3.79443359 C24.7680676,3.54736205 25.0670555,3.42382812 25.4179688,3.42382812 Z M28.7373047,19 L28.7373047,18.2050781 L29.9296875,18.0976562 L30.3056641,17.7431641 L30.3056641,4.28320312 L28.6083984,4.28320312 L28.6083984,3.59570312 L31.2939453,2.81152344 L32.1318359,2.81152344 L32.1318359,13.3925781 L32.5507812,13.3925781 L35.9130859,9.6328125 L35.7626953,9.32128906 L34.7636719,9.23535156 L34.7636719,8.41894531 L38.9423828,8.41894531 L38.9423828,9.23535156 L37.5351562,9.40722656 L34.5273438,12.5976562 L38.3945312,18.0546875 L39.8017578,18.1621094 L39.8017578,19 L36.375,19 L36.375,18.2695312 L33.3994141,14.0048828 L32.1318359,14.0048828 L32.1318359,17.7431641 L32.5185547,18.0976562 L33.5605469,18.2050781 L33.5605469,19 L28.7373047,19 Z M42.8632812,8.31152344 L43.7226562,8.31152344 L43.7226562,17.7431641 L44.0986328,18.0976562 L45.2802734,18.2050781 L45.2802734,19 L40.3388672,19 L40.3388672,18.2050781 L41.4990234,18.0976562 L41.875,17.7431641 L41.875,9.78320312 L40.3388672,9.78320312 L40.3388672,9.09570312 L42.8632812,8.31152344 Z M42.9492188,3.42382812 C43.3072935,3.42382812 43.609862,3.54915239 43.8569336,3.79980469 C44.1040051,4.05045698 44.2275391,4.35123522 44.2275391,4.70214844 C44.2275391,5.05306165 44.1040051,5.3502592 43.8569336,5.59375 C43.609862,5.8372408 43.3072935,5.95898438 42.9492188,5.95898438 C42.5983055,5.95898438 42.2993176,5.8372408 42.0522461,5.59375 C41.8051745,5.3502592 41.6816406,5.05306165 41.6816406,4.70214844 C41.6816406,4.34407373 41.8051745,4.04150514 42.0522461,3.79443359 C42.2993176,3.54736205 42.5983055,3.42382812 42.9492188,3.42382812 Z M52.4453125,19 L52.4453125,18.2050781 L53.7451172,18.0976562 L54.1210938,17.7431641 L54.1210938,4.28320312 L52.4238281,4.28320312 L52.4238281,3.59570312 L55.109375,2.81152344 L55.9472656,2.81152344 L55.9472656,17.7431641 L56.3447266,18.0976562 L57.6015625,18.2050781 L57.6015625,19 L52.4453125,19 Z M63.9609375,9.13867188 C63.0442663,9.13867188 62.3084338,9.55224196 61.753418,10.3793945 C61.1984022,11.2065471 60.9208984,12.311191 60.9208984,13.6933594 C60.9208984,15.0755277 61.2001925,16.1801716 61.7587891,17.0073242 C62.3173856,17.8344768 63.0514277,18.2480469 63.9609375,18.2480469 C64.8847702,18.2480469 65.6259738,17.8362671 66.1845703,17.0126953 C66.7431669,16.1891235 67.0224609,15.0826892 67.0224609,13.6933594 C67.0224609,12.3183525 66.7413765,11.2154989 66.1791992,10.3847656 C65.6170219,9.5540323 64.8776088,9.13867188 63.9609375,9.13867188 Z M63.9609375,8.19335938 C65.4576898,8.19335938 66.6858676,8.70718887 67.6455078,9.73486328 C68.605148,10.7625377 69.0849609,12.0820232 69.0849609,13.6933594 C69.0849609,15.3046956 68.6033577,16.6241811 67.6401367,17.6518555 C66.6769158,18.6795299 65.4505283,19.1933594 63.9609375,19.1933594 C62.4713467,19.1933594 61.2485399,18.6813202 60.2924805,17.6572266 C59.336421,16.6331329 58.8583984,15.3118571 58.8583984,13.6933594 C58.8583984,12.0748617 59.3328403,10.7535858 60.2817383,9.72949219 C61.2306363,8.70539853 62.4570237,8.19335938 63.9609375,8.19335938 Z M69.7939453,8.41894531 L74.5634766,8.41894531 L74.5634766,9.23535156 L73.4033203,9.32128906 L73.1347656,9.67578125 L75.7128906,16.8623047 L78.5273438,9.67578125 L78.3447266,9.32128906 L77.1630859,9.23535156 L77.1630859,8.41894531 L81.0517578,8.41894531 L81.0517578,9.23535156 L79.7626953,9.40722656 L75.90625,19 L74.6708984,19 L71.1367188,9.36425781 L69.7939453,9.23535156 L69.7939453,8.41894531 Z M88.6679688,12.2861328 L88.6679688,11.9423828 C88.6679688,11.0543575 88.472821,10.3740258 88.0825195,9.90136719 C87.6922181,9.42870857 87.1246782,9.19238281 86.3798828,9.19238281 C85.6494104,9.19238281 85.017418,9.48420932 84.4838867,10.0678711 C83.9503554,10.6515329 83.6513675,11.390946 83.5869141,12.2861328 L88.6679688,12.2861328 Z M90.6337891,16.6689453 L90.6337891,17.8828125 C89.9820931,18.3125021 89.3053421,18.6383452 88.6035156,18.8603516 C87.9016892,19.0823579 87.1962926,19.1933594 86.4873047,19.1933594 C85.0335214,19.1933594 83.8536829,18.6938527 82.9477539,17.6948242 C82.0418249,16.6957958 81.5888672,15.3942137 81.5888672,13.7900391 C81.5888672,12.1428954 82.0633091,10.7983451 83.012207,9.75634766 C83.961105,8.71435026 85.1803311,8.19335938 86.6699219,8.19335938 C87.8873759,8.19335938 88.8523727,8.5818646 89.5649414,9.35888672 C90.2775101,10.1359088 90.6337891,11.1940037 90.6337891,12.5332031 C90.6337891,12.7122405 90.6319987,12.8483068 90.628418,12.9414062 C90.6248372,13.0345057 90.6158855,13.124023 90.6015625,13.2099609 L83.4794922,13.2099609 L83.4794922,13.4570312 C83.4794922,14.8391996 83.8124967,15.9331014 84.4785156,16.7387695 C85.1445346,17.5444376 86.0432886,17.9472656 87.1748047,17.9472656 C87.6975938,17.9472656 88.2400688,17.8434255 88.8022461,17.6357422 C89.3644234,17.4280589 89.9749316,17.1057965 90.6337891,16.6689453 Z M99.1523438,8.67675781 L99.1523438,11.1689453 L98.0673828,11.1689453 L97.8955078,9.61132812 C97.6018866,9.45377525 97.3225925,9.33561237 97.0576172,9.25683594 C96.7926419,9.1780595 96.5276706,9.13867188 96.2626953,9.13867188 C95.6897758,9.13867188 95.2421891,9.27831892 94.9199219,9.55761719 C94.5976546,9.83691546 94.4365234,10.227211 94.4365234,10.7285156 C94.4365234,11.1367208 94.5654284,11.484048 94.8232422,11.7705078 C95.081056,12.0569676 95.5751917,12.3756493 96.3056641,12.7265625 C96.420248,12.7838545 96.5957019,12.8662104 96.8320312,12.9736328 C97.6627646,13.353192 98.2643211,13.6969386 98.6367188,14.0048828 C98.9088555,14.2197276 99.1165357,14.49007 99.2597656,14.815918 C99.4029955,15.141766 99.4746094,15.5016256 99.4746094,15.8955078 C99.4746094,16.926763 99.111169,17.7342093 98.3842773,18.3178711 C97.6573857,18.9015329 96.6494205,19.1933594 95.3603516,19.1933594 C94.830401,19.1933594 94.3237329,19.1557621 93.840332,19.0805664 C93.3569312,19.0053707 92.9111349,18.8889982 92.5029297,18.7314453 L92.5029297,15.8740234 L93.5556641,15.8740234 L93.8242188,17.7431641 C94.132163,17.9222014 94.441893,18.0546871 94.753418,18.140625 C95.064943,18.2265629 95.3782536,18.2695312 95.6933594,18.2695312 C96.3164094,18.2695312 96.8159161,18.1066097 97.1918945,17.7807617 C97.567873,17.4549137 97.7558594,17.0270209 97.7558594,16.4970703 C97.7558594,16.0530577 97.6269544,15.6860366 97.3691406,15.3959961 C97.1113268,15.1059556 96.4954476,14.7389345 95.5214844,14.2949219 C94.4186143,13.8007788 93.668459,13.3352886 93.2709961,12.8984375 C92.8735332,12.4615864 92.6748047,11.9209017 92.6748047,11.2763672 C92.6748047,10.2952425 93.0149706,9.5361355 93.6953125,8.99902344 C94.3756544,8.46191138 95.3352803,8.19335938 96.5742188,8.19335938 C97.0683618,8.19335938 97.5284809,8.23453735 97.9545898,8.31689453 C98.3806987,8.39925171 98.7799461,8.51920494 99.1523438,8.67675781 Z" id="Wiki-loves"></path>
            <path d="M59.432,40.042 C65.858,40.042 69.974,44.2 69.974,50.878 C69.974,57.094 65.732,61.336 59.096,61.336 C52.796,61.336 48.554,57.136 48.554,50.794 C48.554,44.326 52.838,40.042 59.432,40.042 Z M59.264,42.268 C56.282,42.268 54.392,45.208 54.392,50.626 C54.392,56.128 56.282,59.11 59.222,59.11 C62.33,59.11 64.178,56.212 64.178,50.752 C64.178,45.25 62.246,42.268 59.264,42.268 Z M72.536,61 L82.91,61 L82.91,59.11 L81.062,58.942 L80.474,58.312 L80.474,44.452 C82.07,43.99 83.414,43.738 84.464,43.738 C87.11,43.738 88.244,45.166 88.244,48.274 L88.244,58.312 L87.656,58.942 L85.85,59.11 L85.85,61 L96.14,61 L96.14,59.11 L93.914,58.942 L93.368,58.312 L93.368,47.056 C93.368,42.394 91.52,40.084 87.656,40.084 C85.808,40.084 83.456,41.008 80.474,42.646 L80.474,40.168 L78.458,40.168 L72.41,42.142 L72.41,43.822 L75.266,43.822 L75.266,58.312 L74.678,58.942 L72.536,59.11 L72.536,61 Z M103.532,40.042 L97.61,42.058 L97.61,43.696 L100.34,43.696 L100.34,54.196 C100.34,59.026 102.188,61.378 106.094,61.378 C108.32,61.378 110.504,60.412 113.15,58.69 L113.15,61 L121.088,61 L121.088,59.11 L118.904,58.942 L118.316,58.312 L118.316,40.042 L116.384,40.042 L110.42,42.058 L110.42,43.696 L113.15,43.696 L113.15,57.094 C111.764,57.514 110.588,57.766 109.538,57.766 C106.64,57.766 105.548,56.338 105.548,53.062 L105.548,40.042 L103.532,40.042 Z M142.886,42.94 C141.752,41.008 140.072,40 137.972,40 C136.124,40 133.94,40.966 131.084,42.646 L131.084,40.168 L129.068,40.168 L123.146,42.142 L123.146,43.822 L125.876,43.822 L125.876,58.312 L125.288,58.942 L123.146,59.11 L123.146,61 L133.436,61 L133.436,59.11 L131.672,58.942 L131.084,58.312 L131.084,44.452 C132.428,43.948 133.604,43.696 134.612,43.696 C137.3,43.696 138.392,45.082 138.392,48.022 L138.392,58.228 L137.804,58.942 L136.082,59.11 L136.082,61 L145.994,61 L145.994,59.152 L144.104,58.942 L143.516,58.312 L143.516,44.536 C144.902,44.032 146.078,43.738 147.128,43.738 C149.9,43.738 150.992,45.124 150.992,48.274 L150.992,58.312 L150.404,58.942 L148.598,59.11 L148.598,61 L158.93,61 L158.93,59.11 L156.704,58.942 L156.158,58.312 L156.158,47.056 C156.158,42.394 154.226,40.084 150.32,40.084 C148.766,40.084 146.246,41.008 142.886,42.94 Z M179.93,55.792 L179.93,58.9 C177.116,60.538 174.176,61.378 171.236,61.378 C164.978,61.378 160.862,57.178 160.862,50.836 C160.862,44.41 165.188,40 171.236,40 C176.738,40 179.972,43.444 179.972,49.492 L179.972,50.29 L166.238,50.29 L166.238,50.416 C166.238,55.246 168.842,58.102 173,58.102 C175.226,58.102 177.494,57.346 179.93,55.792 Z M174.47,48.064 L174.47,47.602 C174.47,44.116 173.126,42.31 170.816,42.31 C168.296,42.31 166.574,44.41 166.448,48.064 L174.47,48.064 Z M182.618,61 L192.992,61 L192.992,59.11 L191.144,58.942 L190.556,58.312 L190.556,44.452 C192.152,43.99 193.496,43.738 194.546,43.738 C197.192,43.738 198.326,45.166 198.326,48.274 L198.326,58.312 L197.738,58.942 L195.932,59.11 L195.932,61 L206.222,61 L206.222,59.11 L203.996,58.942 L203.45,58.312 L203.45,47.056 C203.45,42.394 201.602,40.084 197.738,40.084 C195.89,40.084 193.538,41.008 190.556,42.646 L190.556,40.168 L188.54,40.168 L182.492,42.142 L182.492,43.822 L185.348,43.822 L185.348,58.312 L184.76,58.942 L182.618,59.11 L182.618,61 Z M210.254,43.612 L210.254,55.834 C210.254,57.976 210.296,59.32 211.766,60.286 C212.732,60.958 213.866,61.21 215.252,61.21 C216.974,61.21 219.158,60.79 221.678,59.866 L221.678,57.85 C220.838,58.06 219.956,58.144 218.948,58.144 C216.176,58.144 215.462,57.052 215.462,54.07 L215.462,43.612 L221.678,43.612 L221.678,41.092 L215.462,41.092 L215.462,35.884 L212.816,35.884 L210.632,40.252 L207.524,42.016 L207.524,43.612 L210.254,43.612 Z M238.352,41.05 C236.21,40.336 234.11,40 232.01,40 C226.844,40 223.778,42.646 223.778,46.258 C223.778,48.778 225.374,50.248 228.482,51.802 C231.758,53.44 234.026,53.86 234.026,56.128 C234.026,57.976 232.724,59.152 230.456,59.152 C229.196,59.152 228.02,58.858 226.928,58.27 L226.508,57.808 L226.046,54.196 L223.484,54.196 L223.484,60.412 C226.088,61.126 228.398,61.462 230.414,61.462 C235.832,61.462 238.982,58.774 238.982,54.532 C238.982,51.508 236.588,50.374 232.85,48.568 C230.372,47.35 228.944,46.636 228.944,44.872 C228.944,43.318 230.078,42.352 232.136,42.352 C233.102,42.352 234.026,42.604 234.908,43.024 L235.412,43.486 L235.832,46.636 L238.352,46.636 L238.352,41.05 Z" id="onuments"></path>
        </g>
    </g>
</svg>