<?xml version="1.0" encoding="UTF-8"?>
<svg xmlns="http://www.w3.org/2000/svg" width="88" height="23" viewBox="0 0 88 23">
  <title>
    Wiki loves Monuments
  </title>
  <g fill="#222" fill-rule="evenodd">
    <path d="M22 5h3v5.4998181C25.4178307 10.1859729 25.9371978 10 26.5 10c1.3807083 0 2.5 1.1192883 2.5 2.5 0 1.3807083-1.1192917 2.5-2.5 2.5-.5628022 0-1.0821693-.1859735-1.5-.4998191V19h-4.42c.26963-.4543.41451-.97174.42-1.5 0-1.65685-1.343145-3-3-3-1.656854 0-3 1.34315-3 3 .005486.52826.15037 1.0457.42 1.5H11v-4.4998191C10.5821693 14.8140265 10.0628022 15 9.5 15 8.11929167 15 7 13.8807083 7 12.5 7 11.1192883 8.11929167 10 9.5 10c.5628022 0 1.0821693.1859729 1.5.4998181V5h3v2h2V5h4v2h2V5zM33.6138667 11.0537387l-1.1737212-4.23883591L32 6.72100453v-.27498778h1.566099v.27498778l-.4401455.05365615-.0580036.09725177.9041748 3.17241995 1.1225415-3.59831565h.4913252l1.1430134 3.67209285.8461711-3.21936907-.0750635-.09725178-.4674413-.08048422v-.27498778h1.4432677v.27498778l-.4674414.09389826-1.1088936 4.23883591h-.4776772l-1.1805452-3.75593055-1.1600734 3.75593055h-.4674413zm5.7969547-3.33674188h.2729584v2.94438128l.1194193.1106658.3753179.0335351v.2481597h-1.569511v-.2481597l.3684939-.0335351.1194193-.1106658V8.17642761h-.4879132v-.2146246l.8018154-.24480619zm.0272958-1.52584678c.1137333 0 .2098364.03912388.2883124.11737283.0784759.07824894.1177133.17214627.1177133.28169479 0 .10954852-.0392374.20232802-.1177133.27834128-.078476.07601326-.1745791.11401932-.2883124.11401932-.1114586 0-.2064244-.03800606-.2849003-.11401932-.078476-.07601326-.1177134-.16879276-.1177134-.27834128 0-.11178421.0392374-.20624045.1177134-.28337155.0784759-.0771311.1734417-.11569607.2849003-.11569607zm1.054302 4.86258866v-.2481597l.3787298-.0335351.1194193-.1106658V6.45943079h-.5390929v-.2146246L41.3044705 6h.2661345v3.30320678h.1330672l1.0679498-1.1737283-.0477677-.09725177-.3173142-.02682808v-.25486671h1.3272604v.25486671l-.4469694.05365615-.9553545.9959923 1.2283129 1.70358282.4469694.0335351v.2615737h-1.0884217v-.2280386l-.9451186-1.33134328h-.4026136v1.16702128l.1228312.1106658.3309621.0335351v.2481597h-1.5319791zm4.4867542-3.33674188h.2729584v2.94438128l.1194193.1106658.3753178.0335351v.2481597H44.177358v-.2481597l.3684938-.0335351.1194194-.1106658V8.17642761h-.4879132v-.2146246l.8018154-.24480619zm.0272958-1.52584678c.1137332 0 .2098364.03912388.2883123.11737283.078476.07824894.1177134.17214627.1177134.28169479 0 .10954852-.0392374.20232802-.1177134.27834128-.0784759.07601326-.1745791.11401932-.2883123.11401932-.1114586 0-.2064244-.03800606-.2849004-.11401932-.0784759-.07601326-.1177133-.16879276-.1177133-.27834128 0-.11178421.0392374-.20624045.1177133-.28337155.078476-.0771311.1734418-.11569607.2849004-.11569607zm3.0161906 4.86258866v-.2481597l.4128497-.0335351.1194193-.1106658V6.45943079h-.5390929v-.2146246L48.868831 6h.2661344v4.6613781l.1262433.1106658.3992017.0335351v.2481597h-1.6377506zm3.657643-3.07852165c-.2911571 0-.5248754.12910882-.701162.38733034-.1762865.25822151-.2644284.60307062-.2644284 1.03455765 0 .43148704.0887106.77633616.2661344 1.03455766.1774239.2582215.4105736.3873303.699456.3873303.2934318 0 .5288561-.1285499.7062799-.3856535.1774239-.2571037.2661345-.60251174.2661345-1.03623446 0-.42925135-.0892792-.77354154-.2678404-1.0328809-.1785612-.25933936-.4134169-.38900709-.704574-.38900709zm0-.29510883c.475405 0 .8655042.16040793 1.1703093.4812286.3048051.32082067.4572053.7327393.4572053 1.23576822 0 .50302893-.1529689.91494756-.4589113 1.23576826-.3059424.3208206-.695473.4812286-1.1686033.4812286s-.8615235-.159849-1.1651913-.4795519c-.3036678-.3197028-.4554994-.73218034-.4554994-1.23744496 0-.50526461.1506943-.91774214.4520874-1.23744497.3013931-.31970283.6909237-.47955185 1.1686033-.47955185zm1.8527054.0704237h1.5149192v.25486671l-.3684938.02682808-.0852995.11066581.8188752 2.24349778.8939389-2.24349778-.0580037-.11066581-.3753178-.02682808v-.25486671h1.2351369v.25486671l-.4094377.05365615-1.2249009 2.99468392h-.3923778l-1.1225415-3.00809795-.4264975-.04024212v-.25486671zm5.9948495 1.20726339v-.1073123c0-.27722483-.0619837-.48961164-.185953-.63716679-.1239692-.14755515-.3042337-.22133162-.5407988-.22133162-.2320159 0-.432752.09110276-.6022146.27331101-.1694625.18220826-.2644284.41303918-.2849003.6924997h1.6138667zm.6243924 1.36823189v.3789465c-.2069945.1341411-.4219471.2358632-.6448643.3051694-.2229172.0693062-.4469683.1039588-.6721601.1039588-.461757 0-.8365025-.1559367-1.1242476-.4678146-.2877451-.3118779-.4316155-.71820743-.4316155-1.21900067 0-.51420735.1506943-.93395075.4520874-1.25924279.3013931-.32529204.688649-.48793562 1.1617793-.48793562.3866931 0 .6931996.12128404.9195287.36385577.2263292.24257173.3394921.57288911.3394921.99096204 0 .0558921-.0005687.09836946-.001706.12743335-.0011373.0290639-.0039806.05700953-.00853.08383774h-2.2621429v.07713072c0 .43148703.1057703.77298266.3173141 1.02449716.2115439.2515144.49701.3772698.8564071.3772698.1660505 0 .3383538-.032417.516915-.0972518.1785612-.0648348.3724735-.1654391.5817427-.3018158zm2.7057004-2.49501106v.77801419h-.34461l-.0545917-.48625887c-.0932612-.04918505-.1819718-.08607328-.2661345-.11066581-.0841626-.02459252-.1683239-.0368886-.2524865-.0368886-.1819732 0-.3241376.04359519-.4264975.13078687-.10236.08719168-.1535392.20903464-.1535392.36553252 0 .127434.0409434.23586305.1228313.32529042.081888.08942736.2388375.18891381.4708533.29846234.0363947.01788547.0921231.04359545.1671871.07713071.2638611.11849126.4549301.22580249.5732127.32193691.0864372.06707052.1524015.15146633.1978948.25318996.0454933.10172363.0682396.21406507.0682396.33702772 0 .3219385-.1154375.5740081-.346316.7562164-.2308785.1822082-.5510328.273311-.9604724.273311-.1683253 0-.3292554-.0117372-.4827953-.0352119-.1535399-.0234747-.2951356-.059804-.4247915-.108989v-.8920335h.334374l.0852996.5835106c.0978105.0558921.1961883.0972516.2951363.1240798.0989479.0268283.198463.0402422.2985482.0402422.1978959 0 .3565514-.0508611.4759713-.1525847.1194199-.1017236.179129-.2353038.179129-.4007444 0-.1386124-.0409434-.2531895-.1228313-.34373471-.081888-.09054521-.2775062-.2051223-.5868606-.34373472-.3502984-.1542622-.588566-.29957949-.7148099-.43595622-.1262439-.13637673-.1893649-.30516835-.1893649-.50637993 0-.30628872.1080449-.54326768.3241381-.71094399.2160932-.16767631.5208937-.25151321.9144107-.25151321.1569519 0 .3030969.01285499.4384395.03856536.1353426.02571037.2621532.06315751.3804358.11234256zM32.2246058 18.902867v-.4326832l.5749908-.0618118.1257793-.1589449v-4.6800428l-.1078108-.1147935-.5929593-.0529816v-.4238529h2.3538687v.2472475l1.4015402 4.0530937 1.3925559-4.0442634v-.2560778h2.3808214v.4238529l-.6109278.0529816-.0988265.1236238v4.7065336l.0988265.1412843.6109278.0441513v.4326832h-2.4886322v-.4326832l.5570224-.0441513.0898423-.1412843v-4.7418547l-1.8687202 5.3599735h-.6468647l-1.823799-5.3158221v4.6623822l.1347634.1589449.5570224.0618118v.4326832h-2.0394206zm10.3678034-4.4063044c1.3745875 0 2.2550422.8741967 2.2550422 2.2782095 0 1.3068799-.9074074 2.1987371-2.326916 2.1987371-1.3476348 0-2.2550422-.8830269-2.2550422-2.2163976 0-1.3598615.9163917-2.260549 2.326916-2.260549zm-.0359369.4680043c-.6378804 0-1.0421709.6181188-1.0421709 1.7572236 0 1.1567653.4042905 1.7837144 1.0331867 1.7837144.6648331 0 1.0601393-.6092886 1.0601393-1.7572236 0-1.1567653-.4132746-1.7837144-1.0511551-1.7837144zm2.8390172 3.9383001v-.3973621l.4581959-.0353211.1257792-.132454v-3.0464429h-.6109277v-.3532108l1.2937293-.4150227h.4312432v.5209859c.6378804-.3443805 1.1409974-.5386464 1.5363036-.5386464.8265493 0 1.2218555.4856648 1.2218555 1.4658247v2.3665122l.116795.132454.4761643.0353211v.3973621H48.243491v-.3973621l.386322-.0353211.1257792-.132454v-2.1104344c0-.6534399-.2425742-.9536691-.8085808-.9536691-.2246058 0-.5121012.0529816-.853502.1501146v2.9139889l.1257792.132454.3953062.0353211v.3973621h-2.2191053zm6.6303631-4.4063044h.4312431v2.7373835c0 .688761.23359.9889902.853502.9889902.2246058 0 .4761643-.0529816.772644-.1412843v-2.8168559h-.5839751v-.3443806l1.2757609-.4238529h.4132747v3.8411672l.1257792.132454.4671801.0353211v.3973621h-1.6980198v-.4856648c-.5660066.3620411-1.0331867.5651373-1.509351.5651373-.8355335 0-1.2308397-.4944951-1.2308397-1.5099761v-2.2075673h-.5839751v-.3443806l1.2667767-.4238529zm8.4182251.6092886c.7187386-.4061924 1.2577925-.6004583 1.5902091-.6004583.8355335 0 1.2488082.4856648 1.2488082 1.4658247v2.3665122l.116795.132454.4761643.0353211v.3973621h-2.210121v-.3973621l.3863219-.0353211.1257793-.132454v-2.1104344c0-.6622702-.2335901-.9536691-.8265494-.9536691-.2246057 0-.4761642.0618119-.7726439.1677751v2.8963284l.1257793.132454.4042904.0441514v.3885318h-2.1202787v-.3973621l.3683535-.0353211.1257792-.1501145v-2.1457555c0-.6181189-.23359-.9095177-.8085808-.9095177-.2156216 0-.4671801.0529816-.7546755.1589448v2.9139889l.1257793.132454.3773377.0353211v.3973621h-2.2011368v-.3973621l.4581958-.0353211.1257793-.132454v-3.0464429h-.5839751v-.3532108l1.2667767-.4150227h.4312431v.5209859c.6109278-.3532108 1.0781078-.556307 1.473414-.556307.4492116 0 .8085809.2119265 1.0511551.6181189zm7.9240925 2.7020624v.65344c-.6019436.3443805-1.2308398.5209859-1.859736.5209859-1.3386506 0-2.2191053-.883027-2.2191053-2.2163977 0-1.3510312.9253759-2.2782095 2.2191053-2.2782095 1.1769343 0 1.8687202.7240821 1.8687202 1.9956409v.1677751h-2.9378438v.0264909c0 1.0154809.5570224 1.6159392 1.4464613 1.6159392.4761643 0 .9613128-.1589448 1.4823983-.4856648zM67.20022 16.1831441v-.097133c0-.7329124-.2874954-1.1126139-.7816281-1.1126139-.5390539 0-.9074074.4415134-.9343601 1.2097469H67.20022zm1.742941 2.7197229v-.3973621l.4581958-.0353211.1257792-.132454v-3.0464429h-.6109277v-.3532108l1.2937294-.4150227h.4312431v.5209859c.6378804-.3443805 1.1409974-.5386464 1.5363036-.5386464.8265493 0 1.2218555.4856648 1.2218555 1.4658247v2.3665122l.116795.132454.4761643.0353211v.3973621h-2.2011368v-.3973621l.386322-.0353211.1257793-.132454v-2.1104344c0-.6534399-.2425743-.9536691-.8085809-.9536691-.2246058 0-.5121012.0529816-.853502.1501146v2.9139889l.1257792.132454.3953062.0353211v.3973621H68.943161zm5.9116245-3.6557315h-.5839751v-.3355502l.6648332-.3708713.46718-.9183481h.5660066v1.0949535h1.3296663v.5298161h-1.3296663v2.1987371c0 .6269491.152732.8565361.7456913.8565361.2156215 0 .4042904-.0176605.583975-.0618119v.423853c-.5390539.1942659-1.0062339.2825686-1.3745874.2825686-.2964797 0-.5390539-.0529816-.7456913-.1942659-.3144481-.2030962-.3234323-.4856649-.3234323-.9360086v-2.5696084zm6.010451-.5386464v1.1744258h-.5390539l-.0898423-.6622702-.1078108-.097133c-.1886688-.0883027-.3863219-.1412843-.5929593-.1412843-.4402273 0-.6828016.2030962-.6828016.5298162 0 .3708713.3054639.5209859.8355336.7770637C80.4878988 16.6688089 81 16.9072262 81 17.5430056 81 18.4348628 80.3261826 19 79.1672167 19c-.4312431 0-.9253758-.0706422-1.4823982-.2207567v-1.3068799h.5480381l.0988266.7594032.0898423.0971329c.23359.1236238.4851485.1854357.7546755.1854357.4851485 0 .7636597-.2472476.7636597-.6357794 0-.4768346-.4851486-.5651373-1.1859186-.9095178-.6648332-.3267199-1.006234-.6357794-1.006234-1.1655955 0-.7594032.6558489-1.3157102 1.7609094-1.3157102.4492116 0 .8984232.0706422 1.356619.2207568z"/>
  </g>
</svg>
